<?xml version="1.0" encoding="UTF-8" standalone="no"?><!-- Generator: Gravit.io --><svg xmlns="http://www.w3.org/2000/svg" xmlns:xlink="http://www.w3.org/1999/xlink" style="isolation:isolate" viewBox="0 0 293 160" width="293pt" height="160pt"><defs><clipPath id="_clipPath_xzpSobxFNQJDqwf6TWMvyZqyGzEkO5A2"><rect width="293" height="160"/></clipPath></defs><g clip-path="url(#_clipPath_xzpSobxFNQJDqwf6TWMvyZqyGzEkO5A2)"><path d=" M 0 95 C 27.633 82.901 44.976 69.911 52 56 L 31 154 C 50.322 93.742 66.332 57.085 79 44 C 80.413 87.926 86.423 109.936 93 100 L 151 22 C 156.481 11.57 154.501 4.256 145 0 C 135.266 3.579 130.619 10.932 131 22 L 125 95 C 132.41 70.629 139.086 59.639 145 62 C 144.755 65.29 149.442 77.977 159 100 C 169.889 94.667 177.232 84.01 181 68 C 184.551 103.106 193.904 104.459 209 72 C 210.745 89.168 214.755 104.845 221 119 C 237.505 109.354 246.848 90.364 249 62 C 242.568 45.31 231.245 33.987 215 28 C 210.875 20.699 225.218 14.042 258 8" fill="rgb(255,255,255)" vector-effect="non-scaling-stroke" stroke-width="1" stroke="rgb(0,0,0)" stroke-linejoin="miter" stroke-linecap="square" stroke-miterlimit="3"/></g></svg>